<svg width="112" height="115" viewBox="0 0 112 115" fill="none" xmlns="http://www.w3.org/2000/svg">
<g clip-path="url(#clip0)">
<path d="M4.22664 49.1737C6.8527 50.419 10.3741 51.1163 14.7309 51.1363C20.2331 51.1363 27.0808 50.0703 35.1691 47.6495C47.7091 43.8787 53.7916 35.2912 69.6079 30.5242C77.7277 28.0783 86.1648 26.8363 94.648 26.8382C101.361 26.8382 105.282 27.6601 105.482 27.6999C105.122 27.0574 98.2144 14.8137 84.9741 7.23732C76.6908 2.49028 66.3616 -0.000301589 56.0224 -0.000301589C50.968 -0.0372205 45.9282 0.544963 41.0164 1.73314C28.7765 4.72184 18.6074 9.70299 8.90852 21.4785C0.0599693 32.2726 -3.45144 45.5076 4.22664 49.1737ZM13.0952 38.3247C13.0952 38.3696 13.1202 38.4144 13.1352 38.4542C13.1352 38.4144 13.1102 38.3745 13.0952 38.3247ZM13.6304 32.3324C16.4115 26.7983 23.8195 19.5806 33.0132 15.1574C40.8113 11.4564 49.7699 10.0915 57.6031 10.1114C63.9356 10.1114 69.5279 11.0379 73.1893 12.2633C81.0875 14.8934 88.3604 20.3278 88.7406 20.6167C87.9403 20.6615 72.7692 21.5582 61.7598 24.6315C51.2555 27.5654 44.2527 35.092 34.2487 39.2462C30.1943 40.967 25.845 41.8938 21.4386 41.9759C17.8621 41.9759 14.9359 41.1142 13.6154 39.2761L13.0652 38.1205C12.6089 36.18 12.8148 34.1434 13.6504 32.3324" fill="white"/>
<path d="M3.50143 64.4665L0.575251 84.0275L10.3042 81.6914L11.3596 73.7215C12.1499 73.4326 27.296 67.9733 28.4214 60.5464C29.2668 54.8928 24.2448 53.6574 20.1231 53.6475C18.9828 53.6492 17.8441 53.7358 16.7167 53.9065C12.8202 54.4943 1.76573 57.1044 1.21051 57.2439L0.140076 64.1328L15.3262 60.4517C15.7714 60.3329 16.2309 60.2759 16.6917 60.2824C17.6071 60.2824 18.6575 60.5513 18.7526 61.7767C18.9476 64.1926 12.5 66.3942 12.1599 66.5088L12.6001 62.3844L3.50143 64.4665Z" fill="white"/>
<path d="M53.0463 47.7843C51.5747 46.6288 49.7426 46.0241 47.8692 46.0758C43.3674 46.0758 37.8352 48.9001 33.6035 53.8913C27.5111 61.0591 26.3306 69.9256 31.0125 73.7212C32.477 74.8792 34.3054 75.4843 36.1745 75.4298C40.6763 75.4298 46.1786 72.5955 50.4503 67.5994C56.5577 60.4365 57.7232 51.5601 53.0713 47.7943L53.0463 47.7843ZM38.1703 65.3927C38.243 65.6656 38.3332 65.9334 38.4404 66.1947C38.331 65.9343 38.2407 65.6662 38.1703 65.3927ZM45.5183 61.373C44.5929 65.1138 42.432 67.8833 40.5163 67.8485C40.3789 67.8468 40.2418 67.8351 40.1061 67.8136C39.6918 67.7024 39.3206 67.4699 39.0407 67.1461L38.1353 65.2533C37.7659 63.4209 37.8293 61.528 38.3204 59.7242C39.2408 55.9983 41.4066 53.2487 43.3224 53.2487C43.4604 53.2486 43.5979 53.2636 43.7326 53.2935C45.7334 53.7368 46.5337 57.3731 45.5283 61.3779" fill="white"/>
<path d="M63.8657 61.911L70.5284 60.86L70.6434 66.3841L80.6824 64.282L76.2657 33.9468L67.132 35.74C66.9569 36.1186 63.8057 43.2665 58.8237 54.4094C55.6127 61.5115 51.8008 68.3288 47.4291 74.7873L59.749 72.9742L63.8657 61.911ZM68.2174 47.8791L69.763 47.6848L70.1182 54.3895L65.6164 55.1466L68.2174 47.8791Z" fill="white"/>
<path d="M108.684 50.4194L110.014 39.9241L101.911 41.538L99.8251 52.1927L94.643 53.2985L94.3929 52.8004C95.2837 51.2714 95.9809 49.6384 96.4688 47.9388C97.0297 45.8005 97.4458 43.6272 97.7143 41.4334L110.684 38.8133L111.45 31.5508L90.5014 35.8694C90.5014 36.2281 90.1262 43.0573 88.1554 47.8242C86.1846 52.5912 82.033 56.6757 81.8229 56.885L81.8579 63.8586L111.37 57.2287L112 49.8117L108.684 50.4194Z" fill="white"/>
<path d="M105.968 65.826C103.337 64.5607 99.8101 63.8335 95.4333 63.8335C89.9311 63.8335 83.0934 64.8995 75.0101 67.3203C62.4701 71.0861 56.3927 79.6736 40.5613 84.4405C32.4384 86.8998 23.9962 88.1552 15.5062 88.1664C8.79854 88.1664 4.88697 87.3446 4.68188 87.2997C5.04203 87.9423 11.9448 100.196 25.1901 107.762C33.4634 112.484 43.7926 114.985 54.1618 115.015C59.2021 115.038 64.2263 114.447 69.1228 113.257C81.3677 110.268 91.5318 105.287 101.231 93.5062C110.084 82.7171 113.606 69.4971 105.933 65.8409L105.968 65.826ZM96.5388 82.6523C93.7577 88.1913 86.3447 95.4041 77.161 99.8024C69.3529 103.558 60.4143 104.888 52.5861 104.863C46.2436 104.863 40.6363 103.952 36.9799 102.711C29.0717 100.076 21.7988 94.6469 21.4236 94.353C22.2139 94.3132 37.395 93.4216 48.3995 90.3681C58.9037 87.4392 65.9065 79.9077 75.9405 75.7335C79.9964 74.0361 84.3372 73.1151 88.7357 73.0187C92.6522 73.0187 95.7985 74.015 96.9189 76.2416C97.613 78.3542 97.4771 80.6503 96.5388 82.6673" fill="white"/>
<path d="M38.1703 65.3931C38.243 65.6659 38.3332 65.9338 38.4405 66.195C38.331 65.9346 38.2407 65.6666 38.1703 65.3931Z" fill="white"/>
</g>
<defs>
<clipPath id="clip0">
<rect width="112" height="115" fill="white"/>
</clipPath>
</defs>
</svg>
