<svg width="25" height="33" viewBox="0 0 25 33" fill="none" xmlns="http://www.w3.org/2000/svg">
<path d="M15.1786 33H9.82143C4.40714 33 0 28.7152 0 23.4474V9.55263C0 4.28479 4.40714 0 9.82143 0H15.1786C20.5929 0 25 4.28479 25 9.55263V23.4474C25 28.7152 20.5929 33 15.1786 33ZM9.82143 1.73684C5.39107 1.73684 1.78571 5.24353 1.78571 9.55263V23.4474C1.78571 27.7565 5.39107 31.2632 9.82143 31.2632H15.1786C19.6089 31.2632 23.2143 27.7565 23.2143 23.4474V9.55263C23.2143 5.24353 19.6089 1.73684 15.1786 1.73684H9.82143Z" fill="#717171"/>
<path d="M12 11C11.448 11 11 10.5893 11 10.0833V0.916667C11 0.410667 11.448 0 12 0C12.552 0 13 0.410667 13 0.916667V10.0833C13 10.5893 12.552 11 12 11Z" fill="#717171"/>
<path d="M12.5 19C10.5697 19 9 17.505 9 15.6667V12.3333C9 10.495 10.5697 9 12.5 9C14.4303 9 16 10.495 16 12.3333V15.6667C16 17.505 14.4303 19 12.5 19ZM12.5 10.6667C11.534 10.6667 10.75 11.415 10.75 12.3333V15.6667C10.75 16.585 11.534 17.3333 12.5 17.3333C13.466 17.3333 14.25 16.585 14.25 15.6667V12.3333C14.25 11.415 13.466 10.6667 12.5 10.6667Z" fill="#2988E1"/>
</svg>
