<?xml version="1.0" encoding="utf-8"?><svg xmlns="http://www.w3.org/2000/svg" xmlns:xlink="http://www.w3.org/1999/xlink"><symbol viewBox="0 0 112 23" id="ZUBRIT" xmlns="http://www.w3.org/2000/svg"><path d="M35.764 10.575h5.914l-6.187 9.116v2.952h10.947v-3.388h-6.21l6.21-9.114V7.188H35.764v3.387zm20.986 6.554c0 1.39-.839 2.259-2.177 2.259-1.336 0-2.13-.848-2.13-2.26v-9.94h-3.965v10.03c0 3.232 2.56 5.555 6.095 5.555 3.557 0 6.142-2.345 6.142-5.556V7.187H56.75v9.942zm17.02-2.409c1.245-.87 1.766-1.824 1.766-3.191 0-2.647-1.992-4.341-5.142-4.341h-6.687v15.454h7.026c3.059 0 5.032-1.78 5.032-4.536 0-1.563-.568-2.517-1.996-3.386zm-6.096-4.123h2.47c.905 0 1.427.478 1.427 1.26 0 .78-.522 1.257-1.427 1.257h-2.47v-2.517zm2.674 8.639h-2.674V16.52h2.674c.905 0 1.45.5 1.45 1.346 0 .847-.545 1.369-1.45 1.369zm18.877-4.081c.795-.848 1.18-1.846 1.18-3.019 0-2.863-2.311-4.948-5.508-4.948h-6.391v15.455h3.967V16.89h1.338l2.855 5.753h4.6l-3.49-6.446c.748-.413 1.064-.63 1.45-1.042zm-4.508-1.434h-2.244v-3.124h2.243c.999 0 1.722.673 1.722 1.562 0 .89-.723 1.562-1.722 1.562zm8.566 8.922h3.967V7.188h-3.967v15.455zm6.278-15.455v3.387h3.965v12.068h3.967V10.574h3.966V7.189H99.561zm-66.445.23c-1.834.292-2.242 1.065-2.48 1.856a.67.67 0 01-.49.49c-2.89-2.978-6.062-3.304-6.062-3.304C22.247 1.598 16.16.642 12.966 1.382 12.167.42 10.728-.102 8.523.454c1.747.308 4.431 2.124 1.85 4.448-.138.908.374 1.513 1.31 1.78-.045.042-.09.088-.137.128-1.374-.135-2.183-.794-2.015-1.908.84-.755 1.12-1.456 1.06-2.07-.964.12-2.272.47-3.97 1.254-2.295 1.06-3.374 2.199-3.92 3.251-.791-.899-.058-2.532.488-3.514C-.355 4.953-.305 9.667 3.113 10c-.068.81.083 1.648.496 2.426.873 1.648 2.88 2.646 4.812 2.61.087.295.167.588.24.877 1.257.24 2.494.526 3.197 1.204.46-.311.996-1.028 1.204-2.441l.526.95c.56.712 1.205 1.512.648 3.558-.438 1.605-.648 2.716-.261 3.59h2.296c-.565-1.7.99-4.027 1.96-4.566-.743-.802-.647-.979-1.484-1.695 2.512.358 3.995 2.762 4.275 3.474.246.637-.622 1.632-.603 2.788h2.79c-.278-1.02-.05-1.725.691-2.43.837-.8 1.77-1.87 1.58-3.03l-1.668-1.336c2.226.182 3.716 1.785 5.015 2.763 1.3.978.743 1.778.655 2.314a3.04 3.04 0 00.201 1.719h2.563c-.685-.924-.35-1.227.115-2.255.557-1.244 2.504-4.007-.653-8.81a13.403 13.403 0 00-.47-.66c.315-.24.5-.508.456-.794-.085-.564-.28-1.531 1.55-1.436l1.445-1.507s.257-.184-1.573.106zm-23.79 3.51l1.08-2.21c1.358.887.204 2.688-1.08 2.21z"/></symbol><symbol viewBox="0 0 42 34" id="arrow-back" xmlns="http://www.w3.org/2000/svg"><path d="M41.301 17h-40m0 0l16-16m-16 16l16 16"/></symbol><symbol viewBox="0 0 46 28" id="arrow-left" xmlns="http://www.w3.org/2000/svg"><path d="M1 14h45M1 14L14 1M1 14l13 13"/></symbol><symbol viewBox="0 0 46 28" id="arrow-right" xmlns="http://www.w3.org/2000/svg"><path d="M45 14H0m45 0L32 1m13 13L32 27"/></symbol><symbol viewBox="0 0 22 24" id="basket" xmlns="http://www.w3.org/2000/svg"><g clip-path="url(#aeclip0)"><path d="M10.363 18.443a2.046 2.046 0 00-2.045 2.042 2.046 2.046 0 004.09 0 2.046 2.046 0 00-2.045-2.042zm6.134 0a2.046 2.046 0 00-2.045 2.042 2.046 2.046 0 004.089 0 2.046 2.046 0 00-2.044-2.042zm3.978-8.199L7.413 6.891a.614.614 0 00-.75.73L8.67 16.4h-.786L5.482 5.895a.613.613 0 00-.474-.464l-4.27-.882A.614.614 0 00.489 5.75l3.885.802L6.797 17.15a.613.613 0 00.598.477h12.07a.615.615 0 00.607-.53l.858-6.175a.613.613 0 00-.455-.678zm-8.14 3.91a.613.613 0 01-1.227 0v-2.696a.613.613 0 011.227 0v2.696zm2.625 0a.613.613 0 01-1.227 0v-1.88a.613.613 0 011.227 0v1.88zm2.625 0a.613.613 0 01-1.227 0v-1.226a.613.613 0 011.227 0v1.226z"/></g><path fill-rule="evenodd" clip-rule="evenodd" d="M16.268 4.568a2.996 2.996 0 00-1.693-.523c-.627 0-1.21.193-1.693.523-.28-.843-.492-1.752-.492-2.383C12.39.98 13.37 0 14.575 0s2.185.98 2.185 2.185c0 .631-.212 1.54-.492 2.383zm-4.722 2.274l.024.006v-.011l-.024.005zm4.972 1.217c-1.333-.33-2.766-.681-4.129-1.013a2.185 2.185 0 114.129 1.013zm4.436 1.103c-.866-.217-2.155-.538-3.618-.9a2.995 2.995 0 00.243-1.425c.87.18 1.762.45 2.308.765.596.344.969.928 1.067 1.56zM9.869 6.439c-.36-.086-.706-.167-1.03-.243a2.19 2.19 0 01-.376-2.667 2.188 2.188 0 013.147-.7c.098.738.338 1.599.61 2.353a3.01 3.01 0 00-.449.774c-.628.113-1.305.278-1.902.483zm10.124.075a3.43 3.43 0 01-.217.114c-.696-.295-1.587-.526-2.397-.672a3.01 3.01 0 00-.449-.774c.262-.727.494-1.553.599-2.273.095-.067.189-.128.278-.18a2.188 2.188 0 012.986.8 2.188 2.188 0 01-.8 2.985z"/><defs><clipPath id="aeclip0"><path transform="translate(0 3.064)" d="M0 0h20.936v20.936H0z"/></clipPath></defs></symbol><symbol viewBox="0 0 44 44" id="btn-1" xmlns="http://www.w3.org/2000/svg"><g clip-path="url(#afclip0)"><path d="M35.135.303H21.353A3.857 3.857 0 0017.5 4.156v13.7a9.713 9.713 0 00-3.716-.735H2.1c-.696 0-1.261.565-1.261 1.262v18.964c0 .696.565 1.261 1.261 1.261h7.876l4.382 4.382a1.262 1.262 0 001.784 0l4.382-4.382h1.767a1.26 1.26 0 001.261-1.261V26.889a9.71 9.71 0 00-.8-3.872h12.384a3.857 3.857 0 003.852-3.852v-1.922l4.382-4.381a1.262 1.262 0 000-1.784l-4.382-4.382v-2.54A3.857 3.857 0 0035.136.303zM21.03 36.085H20c-.334 0-.655.133-.892.37l-3.859 3.86-3.86-3.86a1.262 1.262 0 00-.891-.37H3.36v-16.44h10.423c3.995 0 7.245 3.25 7.245 7.244v9.196zM40.693 11.97l-3.859 3.859c-.237.237-.37.558-.37.892v2.445c0 .733-.596 1.33-1.329 1.33H21.161a9.858 9.858 0 00-1.138-1.115V4.156c0-.733.597-1.33 1.33-1.33h13.782c.733 0 1.33.596 1.33 1.33v3.062c0 .335.133.656.37.892l3.858 3.86z"/><path d="M15.907 31.881c.115-.307.179-.639.179-.986v-5.913a2.818 2.818 0 00-2.816-2.815H9.983a2.818 2.818 0 00-2.815 2.815v5.913a2.818 2.818 0 002.815 2.816h3.287c.273 0 .537-.04.786-.113l1.012 1.012a1.261 1.261 0 101.784-1.784l-.945-.945zm-6.216-.986v-5.913c0-.161.131-.292.292-.292h3.287c.162 0 .293.131.293.292v5.913a.293.293 0 01-.293.293H9.983a.293.293 0 01-.292-.293zM29.592 6.172c-.434-1.022-1.858-1.007-2.306-.036l-4.62 9.99a1.261 1.261 0 102.29 1.058l1.268-2.742h4.14l1.15 2.706a1.261 1.261 0 102.322-.987l-4.244-9.989zM27.39 11.92l.99-2.143.912 2.143H27.39z"/></g><defs><clipPath id="afclip0"><path transform="translate(.76 .303)" d="M0 0h43.056v43.056H0z"/></clipPath></defs></symbol><symbol viewBox="0 0 39 38" id="btn-2" xmlns="http://www.w3.org/2000/svg"><g clip-path="url(#agclip0)"><path d="M34.623 2.858h-16.43A3.442 3.442 0 0014.75 6.3v8.094l2.683 1.334 1.34-2.682a3.292 3.292 0 014.41-1.47 3.285 3.285 0 011.47 4.41l-2.389 4.78c.063.632.007 1.27-.171 1.887h1.577l-4.16 11.44c-.247.678.23 1.47 1.03 1.47.447 0 .868-.277 1.03-.722l4.432-12.188h.767l4.478 12.191a1.096 1.096 0 002.057-.755l-4.2-11.436h5.52a3.443 3.443 0 003.441-3.443V6.3a3.443 3.443 0 00-3.442-3.442zm-2.348 15.1H27.36a1.096 1.096 0 010-2.19h4.915a1.095 1.095 0 110 2.19zm0-4.107H27.36a1.096 1.096 0 110-2.191h4.915a1.096 1.096 0 110 2.191zm0-4.107H20.54a1.096 1.096 0 110-2.192h11.735a1.096 1.096 0 110 2.192z"/><path d="M19.944 22.183c.198-.58.197-1.186.03-1.74l2.718-5.437a1.096 1.096 0 10-1.96-.98l-2.319 4.638-5.188-2.581c-1.579-.785-2.705-1.49-4.627-1.49H7.63a4.76 4.76 0 003.706-1.766 4.772 4.772 0 10-3.707 1.767 7 7 0 00-4.922 2.039 6.908 6.908 0 00-2.041 4.925v3.52c0 1.516.984 2.806 2.347 3.264v6.125c0 .605.49 1.095 1.096 1.095h7.041c.605 0 1.096-.49 1.096-1.095v-12.31c1.039.518 2.403 1.2 3.508 1.753a3.015 3.015 0 002.485.094 2.994 2.994 0 001.7-1.808l.005-.013z"/></g><defs><clipPath id="agclip0"><path transform="translate(.666 .52)" d="M0 0h37.398v37.398H0z"/></clipPath></defs></symbol><symbol viewBox="0 0 47 47" id="btn-3" xmlns="http://www.w3.org/2000/svg"><path d="M43.081 33.258c0 .576-.326 1.103-.843 1.374a1.613 1.613 0 01-.754.184c-.31 0-.62-.088-.885-.262l-7.101-4.616v3.32c0 .86-.716 1.558-1.597 1.558H9.54c-4.658 0-4.792-11.185-4.792-12.458 0-1.274.134-12.458 4.792-12.458H31.9c.882 0 1.598.698 1.598 1.557v3.32l7.101-4.615a1.626 1.626 0 011.639-.078c.52.27.843.797.843 1.373v21.801z"/></symbol><symbol viewBox="0 0 24 24" id="btn-4" xmlns="http://www.w3.org/2000/svg"><path d="M22 17.188c0 .3-.17.575-.44.716a.842.842 0 01-.393.096.84.84 0 01-.462-.137L17 15.455v1.732a.823.823 0 01-.833.813H4.5C2.07 18 2 12.165 2 11.5c0-.664.07-6.5 2.5-6.5h11.667c.46 0 .833.365.833.813v1.732l3.705-2.408a.848.848 0 01.855-.04c.272.14.44.415.44.716v11.375z"/></symbol><symbol viewBox="0 0 24 24" id="chat" xmlns="http://www.w3.org/2000/svg"><path d="M21.038 2.546H2.725A1.99 1.99 0 00.738 4.533V15.74c0 1.096.891 1.987 1.987 1.987h1.473v3.727l5.357-3.727h11.483a1.989 1.989 0 001.986-1.987V4.533a1.99 1.99 0 00-1.986-1.987z"/></symbol><symbol viewBox="0 0 344.96 344.96" id="check" xmlns="http://www.w3.org/2000/svg"><g data-name="Слой 2"><path d="M321.85 86.24l-40-23.11-23.1-40H212.5L172.48 0l-40 23.11H86.24l-23.11 40-40 23.1v46.21L0 172.48l23.11 40v46.21l40 23.11 23.11 40h46.21l40 23.1 40-23.11h46.21l23.11-40 40-23.11V212.5l23.11-40-23.11-40V86.24zM156.91 243.07a16.79 16.79 0 01-23.34 0l-50.45-50.44a16.19 16.19 0 010-22.89l13.35-13.35a16.19 16.19 0 0122.89 0l25.87 25.87 80.34-80.35a16.19 16.19 0 0122.89 0l13.35 13.35a16.19 16.19 0 010 22.89z" data-name="Capa 1"/></g></symbol><symbol viewBox="0 0 13 21" id="chevron-left" xmlns="http://www.w3.org/2000/svg"><path d="M11.5 19L3 10.5 11.5 2"/></symbol><symbol viewBox="0 0 13 21" id="chevron-right" xmlns="http://www.w3.org/2000/svg"><path d="M2 2l8.5 8.5L2 19"/></symbol><symbol viewBox="0 0 18 18" id="close" xmlns="http://www.w3.org/2000/svg"><path d="M.823.871l16 16m0-16l-16 16"/></symbol><symbol class="aosvg-inline--fa aofa-copy aofa-w-14" viewBox="0 0 448 512" id="copy" xmlns="http://www.w3.org/2000/svg"><path d="M433.941 65.941l-51.882-51.882A48 48 0 00348.118 0H176c-26.51 0-48 21.49-48 48v48H48c-26.51 0-48 21.49-48 48v320c0 26.51 21.49 48 48 48h224c26.51 0 48-21.49 48-48v-48h80c26.51 0 48-21.49 48-48V99.882a48 48 0 00-14.059-33.941zM266 464H54a6 6 0 01-6-6V150a6 6 0 016-6h74v224c0 26.51 21.49 48 48 48h96v42a6 6 0 01-6 6zm128-96H182a6 6 0 01-6-6V54a6 6 0 016-6h106v88c0 13.255 10.745 24 24 24h88v202a6 6 0 01-6 6zm6-256h-64V48h9.632c1.591 0 3.117.632 4.243 1.757l48.368 48.368a6 6 0 011.757 4.243V112z"/></symbol><symbol viewBox="0 0 24 24" id="eva_edit-fill" xmlns="http://www.w3.org/2000/svg"><path d="M19.4 7.34L16.66 4.6A2 2 0 0014 4.53l-9 9a2 2 0 00-.57 1.21L4 18.91A1 1 0 005 20h.09l4.17-.38a2 2 0 001.21-.57l9-9a1.92 1.92 0 00-.07-2.71zM16 10.68L13.32 8l1.95-2L18 8.73l-2 1.95z"/></symbol><symbol viewBox="0 0 24 24" id="exit" xmlns="http://www.w3.org/2000/svg"><g clip-path="url(#aqclip0)"><path d="M15 13a1 1 0 00-1 1v4c0 .551-.448 1-1 1h-3V4c0-.854-.544-1.617-1.362-1.901L8.342 2H13c.552 0 1 .449 1 1v3a1 1 0 102 0V3c0-1.654-1.346-3-3-3H2.25c-.038 0-.07.017-.107.022C2.095.018 2.049 0 2 0 .897 0 0 .897 0 2v18c0 .854.544 1.617 1.362 1.901l6.018 2.006c.204.063.407.093.62.093 1.103 0 2-.897 2-2v-1h3c1.654 0 3-1.346 3-3v-4a1 1 0 00-1-1z"/><path d="M23.707 9.293l-4-4A1 1 0 0018 6v3h-4a1 1 0 000 2h4v3a1.002 1.002 0 001.707.707l4-4a.999.999 0 000-1.414z"/></g><defs><clipPath id="aqclip0"><path d="M0 0h24v24H0z"/></clipPath></defs></symbol><symbol viewBox="0 0 24 24" id="fb" xmlns="http://www.w3.org/2000/svg"><path d="M24 12c0-6.628-5.372-12-12-12S0 5.372 0 12s5.372 12 12 12c.07 0 .14 0 .21-.005v-9.337H9.634v-3.005h2.578V9.441c0-2.564 1.566-3.961 3.853-3.961 1.097 0 2.04.08 2.311.117v2.681H16.8c-1.242 0-1.486.59-1.486 1.458v1.912h2.977l-.39 3.005h-2.587v8.883C20.33 22.096 24 17.48 24 12z"/></symbol><symbol viewBox="0 0 24 24" id="feather_send" xmlns="http://www.w3.org/2000/svg"><path d="M21 3l-9.9 9.9M21 3l-6.3 18-3.6-8.1L3 9.3 21 3z"/></symbol><symbol viewBox="0 0 200 152" id="foto-man" xmlns="http://www.w3.org/2000/svg"><g clip-path="url(#atclip0)"><path d="M142.475 91.413l-23.911-7.923v-1.333c7.812-5.73 12.897-14.97 12.897-25.378V22.036a3.907 3.907 0 00-3.907-3.906H91.179c-12.484 0-22.64 10.156-22.64 22.64v16.009c0 10.408 5.084 19.648 12.897 25.378v1.333l-23.911 7.923a22.992 22.992 0 00-15.785 21.86v34.821A3.907 3.907 0 0045.647 152h37.166a3.906 3.906 0 000-7.812H67.969v-24.219a3.906 3.906 0 00-7.812 0v24.219H49.553v-30.915a15.192 15.192 0 0110.43-14.444l21.736-7.203v.426c0 10.08 8.2 18.281 18.281 18.281s18.282-8.201 18.282-18.28v-.426l21.736 7.202a15.193 15.193 0 0110.429 14.444v30.915h-10.603v-24.219a3.906 3.906 0 00-7.812 0v24.219h-17.657a3.906 3.906 0 000 7.812h39.979a3.906 3.906 0 003.906-3.906v-34.821a22.995 22.995 0 00-15.785-21.86zM76.352 40.77c0-8.176 6.651-14.827 14.826-14.827h32.47v19.713a22.933 22.933 0 01-8.831 1.783c-7.13 0-13.725-3.246-18.094-8.904a3.906 3.906 0 00-6.183 0c-3.559 4.607-8.592 7.614-14.188 8.572V40.77zm34.117 51.283c0 5.772-4.696 10.468-10.469 10.468-5.772 0-10.469-4.696-10.469-10.469v-5.61A31.313 31.313 0 00100 88.24c3.67 0 7.192-.638 10.47-1.798v5.61zm-10.47-11.626c-13.04 0-23.648-10.609-23.648-23.648v-1.78a30.35 30.35 0 0017.28-8.244c5.67 5.446 13.175 8.496 21.185 8.496a30.78 30.78 0 008.831-1.301v2.829c0 13.04-10.608 23.648-23.648 23.648z"/><path d="M100.222 145.332a3.93 3.93 0 00-2.761-1.144 3.934 3.934 0 00-2.762 1.144 3.936 3.936 0 00-1.144 2.762c0 1.027.417 2.035 1.144 2.761A3.934 3.934 0 0097.461 152a3.932 3.932 0 002.761-1.145 3.932 3.932 0 001.145-2.761 3.935 3.935 0 00-1.145-2.762z"/></g><defs><clipPath id="atclip0"><path d="M0 0h200v152H0z"/></clipPath></defs></symbol><symbol viewBox="0 0 20 20" id="icon-print" xmlns="http://www.w3.org/2000/svg"><path d="M3.828 3.125h12.344a.39.39 0 00.39-.39V1.718c0-.95-.769-1.719-1.718-1.719H5.156c-.949 0-1.718.77-1.718 1.719v1.015a.39.39 0 00.39.391zM2.11 4.375h15.78c1.164 0 2.11.946 2.11 2.11v7.343c0 1.163-.946 2.11-2.11 2.11h-1.328v-3.126A2.816 2.816 0 0013.75 10h-7.5a2.816 2.816 0 00-2.813 2.813v3.124H2.11A2.112 2.112 0 010 13.829V6.484c0-1.163.946-2.109 2.11-2.109zm14.14 4.688a.938.938 0 000-1.876.937.937 0 100 1.875z"/><path d="M6.25 11.875h7.5c.518 0 .938.42.938.938v4.374c0 .518-.42.938-.938.938h-7.5a.937.937 0 01-.938-.938v-4.374c0-.518.42-.938.938-.938z"/></symbol><symbol viewBox="0 0 24 24" id="instagram" xmlns="http://www.w3.org/2000/svg"><g clip-path="url(#avclip0)"><path d="M23.976 7.056c-.056-1.275-.263-2.152-.558-2.912a5.857 5.857 0 00-1.388-2.128A5.906 5.906 0 0019.906.633C19.142.338 18.27.13 16.995.075 15.71.015 15.302 0 12.044 0 8.785 0 8.377.014 7.097.07c-1.275.057-2.151.263-2.91.558a5.856 5.856 0 00-2.13 1.388A5.909 5.909 0 00.674 4.14C.38 4.904.173 5.776.116 7.05.056 8.336.041 8.744.041 12.002c0 3.259.014 3.667.07 4.947.057 1.275.263 2.151.559 2.911a5.919 5.919 0 001.387 2.129 5.9 5.9 0 002.124 1.383c.765.295 1.636.501 2.912.558 1.28.056 1.688.07 4.946.07 3.259 0 3.666-.014 4.946-.07 1.276-.057 2.152-.263 2.912-.558a6.139 6.139 0 003.512-3.512c.295-.764.501-1.636.557-2.911.057-1.28.07-1.688.07-4.947 0-3.258-.004-3.666-.06-4.946zm-2.162 9.799c-.051 1.172-.248 1.805-.412 2.227a3.981 3.981 0 01-2.279 2.278c-.422.165-1.06.361-2.227.413-1.266.056-1.645.07-4.848.07-3.202 0-3.586-.014-4.847-.07-1.173-.052-1.805-.248-2.227-.413a3.693 3.693 0 01-1.379-.895 3.73 3.73 0 01-.895-1.378c-.164-.422-.361-1.06-.413-2.227-.056-1.266-.07-1.646-.07-4.848 0-3.203.014-3.587.07-4.848.052-1.172.249-1.805.413-2.227.192-.52.497-.994.9-1.379a3.726 3.726 0 011.378-.895c.422-.164 1.06-.36 2.227-.413 1.266-.056 1.646-.07 4.848-.07 3.207 0 3.587.014 4.848.07 1.172.052 1.805.249 2.227.413.52.192.994.497 1.378.895.399.39.704.858.896 1.379.164.422.36 1.06.412 2.227.057 1.266.07 1.645.07 4.848 0 3.202-.013 3.577-.07 4.843z"/><path d="M12.044 5.837a6.167 6.167 0 00-6.166 6.165 6.167 6.167 0 006.166 6.166 6.167 6.167 0 006.165-6.166 6.167 6.167 0 00-6.165-6.165zm0 10.165a4 4 0 11.001-8 4 4 0 01-.001 8zm7.848-10.409a1.44 1.44 0 11-2.878 0 1.44 1.44 0 012.878 0z"/></g><defs><clipPath id="avclip0"><path d="M0 0h24v24H0z"/></clipPath></defs></symbol><symbol viewBox="0 0 24 24" id="ion_attach-outline" xmlns="http://www.w3.org/2000/svg"><path fill-rule="evenodd" clip-rule="evenodd" d="M14.81 3.235A3.935 3.935 0 009.357 6.91l.006 8.84v.006a2.629 2.629 0 005.257 0V9a.75.75 0 00-1.5 0v6.736a1.13 1.13 0 01-2.257 0L10.858 6.9v-.004a2.435 2.435 0 114.87 0v8.917a3.725 3.725 0 01-5.166 3.492 3.727 3.727 0 01-2.288-3.492V7.488a.75.75 0 10-1.5 0v8.31a5.228 5.228 0 1010.453 0v-8.89a3.936 3.936 0 00-2.418-3.674z"/></symbol><symbol viewBox="0 0 36 36" id="ion_document" xmlns="http://www.w3.org/2000/svg"><path d="M30.094 15.75H20.25a3.375 3.375 0 01-3.375-3.375V2.531a.281.281 0 00-.281-.281h-6.469a4.5 4.5 0 00-4.5 4.5v22.5a4.5 4.5 0 004.5 4.5h15.75a4.5 4.5 0 004.5-4.5V16.031a.281.281 0 00-.281-.281z"/><path d="M29.476 13.26L19.365 3.15a.14.14 0 00-.24.099v9.127A1.125 1.125 0 0020.25 13.5h9.127a.14.14 0 00.1-.24z"/></symbol><symbol viewBox="0 0 25 24" id="log-out" xmlns="http://www.w3.org/2000/svg"><path d="M11.334 3.412H5.912a2 2 0 00-2 2v13.176a2 2 0 002 2h5.422M8.577 12h12.511m0 0l-4.4-4.4m4.4 4.4l-4.4 4.4"/></symbol><symbol viewBox="0 0 24 24" id="mail" xmlns="http://www.w3.org/2000/svg"><g clip-path="url(#azclip0)"><path d="M14.826 1.172a4 4 0 00-5.652 0L.704 9.596l6.374 6.328 2.436-2.436a3.52 3.52 0 014.972 0l2.436 2.436 6.375-6.328-8.47-8.424zm9.148 9.736l-6.058 6.01 5.873 5.873c.131-.275.211-.579.211-.904V11.173c0-.09-.015-.178-.026-.265zm-23.948 0c-.011.088-.026.175-.026.265v10.714c0 .325.08.629.211.904l5.873-5.873-6.058-6.01z"/><path d="M13.491 14.482c-.796-.796-2.186-.796-2.982 0l-9.303 9.303c.275.132.579.212.903.212h19.782c.324 0 .628-.08.903-.212l-9.303-9.303z"/></g><defs><clipPath id="azclip0"><path d="M0 0h24v24H0z"/></clipPath></defs></symbol><symbol viewBox="0 0 24 24" id="phone" xmlns="http://www.w3.org/2000/svg"><g clip-path="url(#baclip0)"><path d="M9.938 14.062c-2.29-2.29-2.808-4.582-2.925-5.5a.823.823 0 01.237-.688l1.853-1.853a.828.828 0 00.117-1.024L6.268.414A.828.828 0 005.196.112L.458 2.344a.823.823 0 00-.455.822c.248 2.359 1.276 8.157 6.974 13.855s11.495 6.726 13.855 6.974a.823.823 0 00.823-.455l2.231-4.738a.828.828 0 00-.3-1.07l-4.583-2.951a.828.828 0 00-1.024.116l-1.853 1.853a.823.823 0 01-.689.237c-.917-.117-3.208-.634-5.499-2.925z"/><path d="M19.034 12.828a.828.828 0 01-.827-.828A6.214 6.214 0 0012 5.793a.828.828 0 010-1.655A7.87 7.87 0 0119.862 12c0 .457-.37.828-.828.828z"/><path d="M23.172 12.828a.828.828 0 01-.827-.828C22.338 6.29 17.71 1.662 12 1.655A.828.828 0 0112 0c6.624.007 11.993 5.376 12 12a.828.828 0 01-.828.828z"/></g><defs><clipPath id="baclip0"><path d="M0 0h24v24H0z"/></clipPath></defs></symbol><symbol viewBox="0 0 48 47" id="play" xmlns="http://www.w3.org/2000/svg"><g clip-path="url(#bbclip0)"><path d="M31.917 22.58l-9.967-7.093a1.223 1.223 0 00-1.252-.098 1.17 1.17 0 00-.657 1.047V30.62c0 .444.252.85.657 1.05a1.217 1.217 0 001.252-.102l9.967-7.088c.314-.227.498-.578.498-.95a1.16 1.16 0 00-.498-.95z"/><path d="M24 .003c-13.257 0-24 10.52-24 23.5C0 36.48 10.743 46.996 24 46.996c13.255 0 24-10.518 24-23.493.002-12.98-10.745-23.5-24-23.5zm0 43.072c-11.04 0-19.99-8.76-19.99-19.572C4.01 12.696 12.96 3.925 24 3.925s19.99 8.77 19.99 19.578c0 10.813-8.95 19.572-19.99 19.572z"/></g><defs><clipPath id="bbclip0"><path d="M0 0h48v47H0z"/></clipPath></defs></symbol><symbol viewBox="0 0 24 24" id="search" xmlns="http://www.w3.org/2000/svg"><path d="M10 18a7.952 7.952 0 004.897-1.688l4.396 4.396 1.414-1.414-4.396-4.396A7.952 7.952 0 0018 10c0-4.411-3.589-8-8-8s-8 3.589-8 8 3.589 8 8 8zm0-14c3.309 0 6 2.691 6 6s-2.691 6-6 6-6-2.691-6-6 2.691-6 6-6z"/></symbol><symbol viewBox="0 0 21 20" id="star-active" xmlns="http://www.w3.org/2000/svg"><path d="M10.5.752l3.765 5.268 6.221 1.919-3.895 5.174.08 6.453-6.171-2.07-6.172 2.07.08-6.453L.514 7.939 6.735 6.02 10.5.752z"/></symbol><symbol viewBox="0 0 16 16" id="telegram" xmlns="http://www.w3.org/2000/svg"><path d="M14.629 3.698l-2.012 9.618c-.152.679-.548.848-1.11.528l-3.066-2.29-1.48 1.442c-.163.166-.3.305-.616.305l.22-3.165 5.683-5.204c.247-.223-.054-.347-.384-.123L4.839 9.29l-3.024-.959c-.658-.208-.67-.667.137-.986L13.78 2.727c.548-.208 1.027.124.849.971z"/></symbol><symbol viewBox="0 0 20 20" id="user" xmlns="http://www.w3.org/2000/svg"><g clip-path="url(#bfclip0)"><path d="M18.18 19.738h-2c0-3.374-2.83-6.118-6.311-6.118s-6.31 2.745-6.31 6.118h-2c0-4.478 3.729-8.118 8.311-8.118 4.581 0 8.31 3.64 8.31 8.118zM9.87 10.97a5.492 5.492 0 01-5.484-5.485A5.49 5.49 0 019.87 0a5.491 5.491 0 015.486 5.485A5.491 5.491 0 019.87 10.97zm0-8.97a3.488 3.488 0 00-3.485 3.485A3.488 3.488 0 009.87 8.97a3.489 3.489 0 003.486-3.485A3.49 3.49 0 009.87 2z"/></g><defs><clipPath id="bfclip0"><path d="M0 0h19.738v19.738H0z"/></clipPath></defs></symbol><symbol viewBox="0 0 200 152" id="user-drop" xmlns="http://www.w3.org/2000/svg"><g clip-path="url(#bgclip0)"><path d="M142.475 91.413l-23.911-7.923v-1.333c7.812-5.73 12.897-14.97 12.897-25.378V22.036a3.907 3.907 0 00-3.907-3.906H91.179c-12.484 0-22.64 10.156-22.64 22.64v16.009c0 10.408 5.084 19.648 12.897 25.378v1.333l-23.911 7.923a22.992 22.992 0 00-15.785 21.86v34.821A3.907 3.907 0 0045.647 152h37.166a3.906 3.906 0 000-7.812H67.969v-24.219a3.906 3.906 0 00-7.812 0v24.219H49.553v-30.915a15.192 15.192 0 0110.43-14.444l21.736-7.203v.426c0 10.08 8.2 18.281 18.281 18.281s18.282-8.201 18.282-18.28v-.426l21.736 7.202a15.193 15.193 0 0110.429 14.444v30.915h-10.603v-24.219a3.906 3.906 0 00-7.812 0v24.219h-17.657a3.906 3.906 0 000 7.812h39.979a3.906 3.906 0 003.906-3.906v-34.821a22.995 22.995 0 00-15.785-21.86zM76.352 40.77c0-8.176 6.651-14.827 14.826-14.827h32.47v19.713a22.933 22.933 0 01-8.831 1.783c-7.13 0-13.725-3.246-18.094-8.904a3.906 3.906 0 00-6.183 0c-3.559 4.607-8.592 7.614-14.188 8.572V40.77zm34.117 51.283c0 5.772-4.696 10.468-10.469 10.468-5.772 0-10.469-4.696-10.469-10.469v-5.61A31.313 31.313 0 00100 88.24c3.67 0 7.192-.638 10.47-1.798v5.61zm-10.47-11.626c-13.04 0-23.648-10.609-23.648-23.648v-1.78a30.35 30.35 0 0017.28-8.244c5.67 5.446 13.175 8.496 21.185 8.496a30.78 30.78 0 008.831-1.301v2.829c0 13.04-10.608 23.648-23.648 23.648z"/><path d="M100.222 145.332a3.93 3.93 0 00-2.761-1.144 3.934 3.934 0 00-2.762 1.144 3.936 3.936 0 00-1.144 2.762c0 1.027.417 2.035 1.144 2.761A3.934 3.934 0 0097.461 152a3.932 3.932 0 002.761-1.145 3.932 3.932 0 001.145-2.761 3.935 3.935 0 00-1.145-2.762z"/></g><defs><clipPath id="bgclip0"><path d="M0 0h200v152H0z"/></clipPath></defs></symbol><symbol viewBox="0 0 16 16" id="viber" xmlns="http://www.w3.org/2000/svg"><path d="M8 1.335c-1.071.013-3.374.19-4.662 1.37-.958.948-1.292 2.35-1.331 4.084-.033 1.728-.072 4.973 3.058 5.856v1.346s-.02.538.337.648c.438.14.688-.275 1.105-.72l.778-.879c2.142.178 3.782-.232 3.97-.293.435-.139 2.883-.451 3.283-3.696.41-3.351-.2-5.463-1.301-6.418h-.007c-.332-.306-1.668-1.279-4.652-1.29 0 0-.222-.014-.578-.008zm.037.942a7.02 7.02 0 01.488.011c2.527.007 3.732.767 4.017 1.023.927.794 1.405 2.697 1.055 5.495-.332 2.713-2.317 2.885-2.685 3.002-.156.05-1.6.406-3.42.289 0 0-1.356 1.634-1.78 2.055-.067.074-.146.095-.196.085-.071-.018-.093-.107-.089-.229l.013-2.233c-2.655-.733-2.498-3.5-2.47-4.946.033-1.446.304-2.628 1.113-3.43 1.088-.982 3.043-1.115 3.953-1.122zm.2 1.446a.166.166 0 100 .332 3.136 3.136 0 012.242.883c.606.588.9 1.378.912 2.411 0 .092.074.167.167.167V7.51a.167.167 0 00.168-.165 3.588 3.588 0 00-1.009-2.646c-.66-.645-1.496-.977-2.48-.977zm-2.198.382a.523.523 0 00-.342.067H5.69a2.61 2.61 0 00-.637.523 1.003 1.003 0 00-.256.525.71.71 0 00.026.302l.01.006c.172.504.396.988.67 1.444a8.48 8.48 0 001.29 1.762l.015.022.024.017.015.018.017.015c.532.505 1.127.94 1.769 1.295.734.4 1.18.588 1.447.667v.004c.078.024.15.034.221.034.228-.016.444-.109.613-.262a2.53 2.53 0 00.517-.638v-.004c.128-.241.085-.469-.1-.623-.37-.323-.77-.61-1.195-.857-.285-.155-.574-.061-.69.095l-.25.315c-.129.156-.361.134-.361.134l-.007.004C7.093 8.527 6.63 6.772 6.63 6.772s-.022-.239.139-.36l.312-.252c.15-.122.254-.41.094-.695a7.498 7.498 0 00-.856-1.194.475.475 0 00-.28-.167zm2.486.495c-.221 0-.221.334.003.334A2.098 2.098 0 0110 5.572 1.94 1.94 0 0110.5 7a.168.168 0 00.167.165l.007.009a.169.169 0 00.167-.167c.015-.662-.191-1.218-.595-1.663C9.84 4.9 9.273 4.65 8.549 4.6h-.024zm.274.898c-.228-.006-.236.335-.01.341.55.029.816.306.851.877a.166.166 0 00.165.163h.007a.168.168 0 00.16-.178c-.039-.744-.445-1.164-1.166-1.202H8.8z"/></symbol><symbol viewBox="0 0 24 24" id="vk" xmlns="http://www.w3.org/2000/svg"><g clip-path="url(#biclip0)"><path d="M19.915 13.028c-.388-.49-.277-.708 0-1.146.005-.005 3.208-4.431 3.538-5.932l.002-.001c.164-.547 0-.949-.793-.949h-2.624c-.668 0-.976.345-1.141.731 0 0-1.336 3.198-3.226 5.271-.61.599-.892.791-1.225.791-.164 0-.419-.192-.419-.739V5.949c0-.656-.187-.949-.74-.949H9.161c-.419 0-.668.306-.668.591 0 .622.945.765 1.043 2.515v3.797c0 .832-.151.985-.486.985-.892 0-3.057-3.211-4.34-6.886-.259-.713-.512-1.001-1.185-1.001H.9c-.749 0-.9.345-.9.731 0 .682.892 4.073 4.148 8.553C6.318 17.343 9.374 19 12.154 19c1.671 0 1.875-.368 1.875-1.001 0-2.922-.151-3.198.686-3.198.388 0 1.056.192 2.616 1.667C19.114 18.217 19.407 19 20.405 19h2.624c.748 0 1.127-.368.909-1.094-.499-1.527-3.871-4.668-4.023-4.878z"/></g><defs><clipPath id="biclip0"><path d="M0 0h24v24H0z"/></clipPath></defs></symbol><symbol viewBox="0 0 16 16" id="whatsapp" xmlns="http://www.w3.org/2000/svg"><path fill-rule="evenodd" clip-rule="evenodd" d="M12.269 3.755A5.947 5.947 0 008.035 2 5.994 5.994 0 002.05 7.985a5.98 5.98 0 00.799 2.992L2 14.077l3.173-.832c.877.477 1.86.728 2.86.728h.002a5.993 5.993 0 005.533-8.276 5.953 5.953 0 00-1.3-1.942zm-4.234 9.208h-.002c-.89 0-1.765-.24-2.532-.694l-.181-.108-1.883.494.502-1.835-.118-.188a4.965 4.965 0 01-.76-2.647 4.982 4.982 0 016.88-4.597c.604.25 1.152.618 1.613 1.081a4.946 4.946 0 011.455 3.52 4.982 4.982 0 01-4.974 4.974zm2.729-3.726c-.15-.075-.885-.436-1.022-.486-.137-.05-.236-.075-.336.074-.1.15-.387.486-.474.586-.087.1-.175.112-.324.038-.15-.075-.631-.233-1.203-.742a4.505 4.505 0 01-.832-1.036c-.087-.15-.009-.231.066-.306.068-.066.15-.174.224-.262.075-.087.1-.149.15-.249.05-.1.025-.187-.013-.262-.037-.075-.337-.811-.461-1.11-.121-.29-.244-.252-.336-.256a6.418 6.418 0 00-.286-.005.55.55 0 00-.4.186c-.137.15-.523.512-.523 1.248s.536 1.447.61 1.547c.075.1 1.055 1.61 2.555 2.258.358.154.636.246.853.315.358.114.684.098.942.06.287-.043.885-.362 1.01-.711.124-.35.124-.649.087-.711-.038-.063-.138-.101-.287-.176z"/></symbol><symbol viewBox="0 0 24 24" id="youtube" xmlns="http://www.w3.org/2000/svg"><path d="M22.775 6.376a2.819 2.819 0 00-1.983-1.983c-1.761-.482-8.804-.482-8.804-.482s-7.043 0-8.803.464a2.876 2.876 0 00-1.983 2.001c-.464 1.76-.464 5.412-.464 5.412s0 3.67.464 5.412a2.82 2.82 0 001.983 1.983c1.779.482 8.803.482 8.803.482s7.043 0 8.804-.464a2.819 2.819 0 001.983-1.983c.463-1.76.463-5.412.463-5.412s.019-3.67-.463-5.43zm-13.03 8.785V8.415l5.857 3.373-5.856 3.373z"/></symbol></svg>