<svg width="47" height="47" viewBox="0 0 47 47" fill="none" xmlns="http://www.w3.org/2000/svg">
<path d="M43.0814 33.2583C43.0814 33.8345 42.7555 34.3608 42.238 34.6318C42.0016 34.7563 41.7429 34.8156 41.4841 34.8156C41.1743 34.8156 40.8643 34.7284 40.5993 34.554L33.498 29.9383V33.2583C33.498 34.1179 32.7824 34.8156 31.9008 34.8156H9.53971C4.88221 34.8156 4.74805 23.6315 4.74805 22.3577C4.74805 21.084 4.88221 9.89988 9.53971 9.89988H31.9008C32.7824 9.89988 33.498 10.5976 33.498 11.4572V14.7771L40.5993 10.1615C41.088 9.84075 41.7237 9.81272 42.238 10.0837C42.7587 10.3546 43.0814 10.8809 43.0814 11.4572V33.2583Z" fill="white"/>
</svg>
