<svg width="39" height="38" viewBox="0 0 39 38" fill="none" xmlns="http://www.w3.org/2000/svg">
<g clip-path="url(#clip0)">
<path d="M34.6231 2.85791H18.1925C16.2911 2.85791 14.75 4.39925 14.75 6.30039V14.3937C15.6185 14.8254 16.557 15.2922 17.4329 15.7276L18.7731 13.0461C19.5846 11.4246 21.5628 10.7658 23.1837 11.5758C24.8081 12.3887 25.4663 14.3615 24.6531 15.9861L22.2641 20.7653C22.3274 21.3979 22.2712 22.0356 22.0929 22.6528H23.6702L19.5101 34.0921C19.2633 34.7706 19.7404 35.5624 20.5401 35.5624C20.9873 35.5624 21.4078 35.2865 21.5693 34.8408L26.0016 22.6528H26.7694L31.2468 34.8445C31.4097 35.2879 31.8291 35.5624 32.2759 35.5624C33.0232 35.5624 33.5711 34.816 33.3037 34.0893L29.1037 22.6528H34.6231C36.5242 22.6528 38.0655 21.1114 38.0655 19.2103V6.30039C38.0655 4.39925 36.5242 2.85791 34.6231 2.85791V2.85791ZM32.2754 17.9589H27.3595C26.7546 17.9589 26.2638 17.4681 26.2638 16.8632C26.2638 16.2577 26.7546 15.7675 27.3595 15.7675H32.2754C32.8808 15.7675 33.371 16.2577 33.371 16.8632C33.371 17.4681 32.8808 17.9589 32.2754 17.9589ZM32.2754 13.851H27.3595C26.7546 13.851 26.2638 13.3608 26.2638 12.7553C26.2638 12.1505 26.7546 11.6597 27.3595 11.6597H32.2754C32.8808 11.6597 33.371 12.1505 33.371 12.7553C33.371 13.3608 32.8808 13.851 32.2754 13.851ZM32.2754 9.74372H20.5401C19.9347 9.74372 19.4445 9.25295 19.4445 8.64806C19.4445 8.04317 19.9347 7.5524 20.5401 7.5524H32.2754C32.8808 7.5524 33.371 8.04317 33.371 8.64806C33.371 9.25295 32.8808 9.74372 32.2754 9.74372Z" fill="white"/>
<path d="M19.9439 22.1829C20.1419 21.6029 20.1405 20.9968 19.9733 20.4439L22.6924 15.0061C22.9629 14.4648 22.7438 13.8066 22.2025 13.5361C21.6615 13.2653 21.0033 13.4847 20.7325 14.026L18.4134 18.6637C17.0273 17.9735 14.9213 16.9264 13.2247 16.0826C11.6463 15.2977 10.5198 14.5938 8.59783 14.5938H7.62972C9.12626 14.5938 10.4619 13.905 11.3361 12.8271C12.0032 12.0067 12.4021 10.9613 12.4021 9.82199C12.4021 7.18585 10.2656 5.04932 7.62915 5.04932C4.99386 5.04932 2.85733 7.18585 2.85733 9.82199C2.85733 11.088 3.35038 12.2384 4.15471 13.0921C5.02439 14.0169 6.25957 14.5938 7.62886 14.5941C5.79306 14.5941 3.99835 15.3379 2.70725 16.6325C1.39103 17.9453 0.666016 19.6943 0.666016 21.5575V25.0782C0.666016 26.5938 1.65011 27.8835 3.01312 28.3423V34.4666C3.01312 35.0718 3.5036 35.5622 4.10878 35.5622H11.1501C11.7553 35.5622 12.2457 35.0718 12.2457 34.4666V22.1561C13.2846 22.6754 14.6493 23.3576 15.7536 23.91C16.5277 24.2969 17.4321 24.3317 18.2388 24.0036C19.0431 23.6726 19.6631 23.0138 19.9396 22.1958C19.941 22.1915 19.9425 22.1872 19.9439 22.1829Z" fill="white"/>
</g>
<defs>
<clipPath id="clip0">
<rect width="37.3984" height="37.3984" fill="white" transform="translate(0.666016 0.520508)"/>
</clipPath>
</defs>
</svg>
