<svg width="44" height="44" viewBox="0 0 44 44" fill="none" xmlns="http://www.w3.org/2000/svg">
<g clip-path="url(#clip0)">
<path d="M35.1351 0.303223H21.3528C19.2286 0.303223 17.5005 2.03136 17.5005 4.15558V17.8568C16.3543 17.3834 15.0993 17.1215 13.7841 17.1215H2.0993C1.40267 17.1215 0.837891 17.6863 0.837891 18.3829V37.3467C0.837891 38.0434 1.40267 38.6081 2.0993 38.6081H9.9754L14.3572 42.99C14.8496 43.4823 15.6486 43.4825 16.1411 42.99L20.5229 38.6081H22.29C22.9866 38.6081 23.5514 38.0434 23.5514 37.3467V26.8887C23.5514 25.5138 23.2653 24.2048 22.7504 23.017H35.1351C37.2593 23.017 38.9875 21.2889 38.9875 19.1646V17.2426L43.3692 12.8616C43.8616 12.3693 43.8619 11.5702 43.3693 11.0776L38.9875 6.69573V4.15558C38.9874 2.03136 37.2593 0.303223 35.1351 0.303223V0.303223ZM21.0285 36.0853H20.0003C19.6657 36.0853 19.345 36.2183 19.1084 36.4548L15.2491 40.3142L11.3898 36.4548C11.1532 36.2183 10.8324 36.0853 10.4979 36.0853H3.36072V19.6443H13.7841C17.7787 19.6443 21.0285 22.8941 21.0285 26.8887V36.0853ZM40.6933 11.9695L36.8342 15.828C36.5975 16.0646 36.4646 16.3855 36.4646 16.72V19.1646C36.4646 19.8977 35.8682 20.4942 35.135 20.4942H21.1613C20.8128 20.0927 20.432 19.7201 20.0233 19.3799V4.15558C20.0233 3.42253 20.6197 2.82605 21.3528 2.82605H35.1351C35.8682 2.82605 36.4646 3.42245 36.4646 4.15558V7.21829C36.4646 7.55282 36.5976 7.87364 36.8342 8.11019L40.6933 11.9695Z" fill="white"/>
<path d="M15.9071 31.8813C16.0222 31.5742 16.0856 31.2421 16.0856 30.8954V24.9822C16.0856 23.4299 14.8227 22.167 13.2703 22.167H9.98318C8.43089 22.167 7.16797 23.4299 7.16797 24.9822V30.8954C7.16797 32.4477 8.43089 33.7106 9.98318 33.7106H13.2703C13.5431 33.7106 13.8066 33.6709 14.0563 33.5982L15.0681 34.61C15.5606 35.1026 16.3593 35.1027 16.852 34.61C17.3446 34.1174 17.3446 33.3188 16.852 32.8261L15.9071 31.8813ZM9.69087 30.8955V24.9822C9.69087 24.821 9.82206 24.6898 9.98326 24.6898H13.2704C13.4316 24.6898 13.5629 24.821 13.5629 24.9822V30.8954C13.5629 31.0566 13.4317 31.1878 13.2704 31.1878H9.98326C9.82197 31.1879 9.69087 31.0567 9.69087 30.8955Z" fill="white"/>
<path d="M29.5916 6.17207C29.1576 5.1499 27.7341 5.16546 27.2858 6.1359L22.6657 16.1251C22.3732 16.7574 22.6487 17.5071 23.281 17.7995C23.9131 18.0919 24.6629 17.8165 24.9554 17.1842L26.2236 14.4421H30.3646L31.5145 17.148C31.7872 17.7895 32.5281 18.0879 33.1687 17.8155C33.81 17.5431 34.1088 16.8025 33.8364 16.1612C33.4613 15.2787 29.7364 6.51298 29.5916 6.17207ZM27.3905 11.9192L28.3819 9.77582L29.2927 11.9192H27.3905Z" fill="white"/>
</g>
<defs>
<clipPath id="clip0">
<rect width="43.0561" height="43.0561" fill="white" transform="translate(0.759766 0.303223)"/>
</clipPath>
</defs>
</svg>
