<svg width="24" height="24" viewBox="0 0 24 24" fill="none" xmlns="http://www.w3.org/2000/svg">
<path d="M20.5 0.5H3.50002C1.56998 0.5 0 2.06998 0 3.99997V15C0 16.93 1.56998 18.5 3.50002 18.5H5.00002V23C5.00002 23.194 5.112 23.371 5.28802 23.453C5.355 23.485 5.42803 23.5 5.50003 23.5C5.61502 23.5 5.72902 23.46 5.82005 23.384L11.6811 18.5H20.5001C22.43 18.5 24 16.93 24 15V3.99997C24 2.06998 22.43 0.5 20.5 0.5ZM18 13C18 13.185 17.898 13.354 17.736 13.441C17.662 13.481 17.581 13.5 17.5 13.5C17.403 13.5 17.306 13.472 17.223 13.416L15 11.934V13C15 13.276 14.776 13.5 14.5 13.5H7.5C6.042 13.5 6 9.90898 6 9.5C6 9.09102 6.042 5.50002 7.5 5.50002H14.5C14.776 5.50002 15 5.72403 15 6.00003V7.06602L17.223 5.58402C17.376 5.48103 17.575 5.47203 17.736 5.55903C17.899 5.64603 18 5.81502 18 6.00003V13Z" fill="white"/>
</svg>
