<svg width="52" height="52" viewBox="0 0 52 52" fill="none" xmlns="http://www.w3.org/2000/svg">
<g clip-path="url(#clip0)" filter="url(#filter0_dd)">
<path d="M34.3548 8H25.392C24.0105 8 22.8867 9.12383 22.8867 10.5052V19.4153C22.1413 19.1075 21.3252 18.9372 20.4699 18.9372H12.8711C12.4181 18.9372 12.0508 19.3044 12.0508 19.7575V32.0899C12.0508 32.543 12.4181 32.9103 12.8711 32.9103H17.993L20.8426 35.7598C21.1628 36.08 21.6824 36.0801 22.0027 35.7598L24.8522 32.9103H26.0014C26.4544 32.9103 26.8217 32.543 26.8217 32.0899V25.2889C26.8217 24.3948 26.6357 23.5436 26.3008 22.7711H34.3548C35.7361 22.7711 36.86 21.6473 36.86 20.2659V19.0159L39.7095 16.1669C40.0297 15.8468 40.0299 15.3271 39.7096 15.0068L36.86 12.1571V10.5052C36.86 9.12383 35.7361 8 34.3548 8V8ZM25.181 31.2696H24.5124C24.2948 31.2696 24.0862 31.3561 23.9324 31.5099L21.4226 34.0197L18.9128 31.5099C18.759 31.3561 18.5504 31.2696 18.3328 31.2696H13.6914V20.5778H20.4699C23.0676 20.5778 25.181 22.6912 25.181 25.2889V31.2696ZM37.9694 15.5868L35.4597 18.096C35.3058 18.2498 35.2193 18.4585 35.2193 18.6761V20.2659C35.2193 20.7426 34.8315 21.1305 34.3547 21.1305H25.2674C25.0408 20.8694 24.7931 20.6271 24.5273 20.4059V10.5052C24.5273 10.0285 24.9152 9.64063 25.392 9.64063H34.3548C34.8315 9.64063 35.2194 10.0285 35.2194 10.5052V12.497C35.2194 12.7145 35.3059 12.9232 35.4597 13.077L37.9694 15.5868Z" fill="white"/>
<path d="M21.8511 28.5358C21.926 28.3362 21.9672 28.1202 21.9672 27.8947V24.0493C21.9672 23.0398 21.146 22.2185 20.1364 22.2185H17.9987C16.9893 22.2185 16.168 23.0398 16.168 24.0493V27.8947C16.168 28.9042 16.9893 29.7255 17.9987 29.7255H20.1364C20.3138 29.7255 20.4852 29.6997 20.6475 29.6524L21.3055 30.3104C21.6258 30.6308 22.1453 30.6308 22.4656 30.3104C22.786 29.99 22.786 29.4707 22.4656 29.1503L21.8511 28.5358ZM17.8086 27.8948V24.0493C17.8086 23.9444 17.894 23.8591 17.9988 23.8591H20.1365C20.2413 23.8591 20.3267 23.9444 20.3267 24.0493V27.8947C20.3267 27.9996 20.2414 28.0849 20.1365 28.0849H17.9988C17.8939 28.0849 17.8086 27.9996 17.8086 27.8948Z" fill="white"/>
<path d="M30.7499 11.8166C30.4677 11.1518 29.542 11.1619 29.2504 11.793L26.2459 18.2891C26.0557 18.7003 26.2349 19.1879 26.6461 19.378C27.0571 19.5682 27.5447 19.3891 27.7349 18.9779L28.5597 17.1947H31.2527L32.0005 18.9544C32.1778 19.3715 32.6596 19.5656 33.0762 19.3885C33.4932 19.2113 33.6876 18.7297 33.5104 18.3127C33.2665 17.7387 30.8441 12.0383 30.7499 11.8166ZM29.3185 15.554L29.9632 14.1601L30.5556 15.554H29.3185Z" fill="white"/>
</g>
<defs>
<filter id="filter0_dd" x="0" y="0" width="52" height="52" filterUnits="userSpaceOnUse" color-interpolation-filters="sRGB">
<feFlood flood-opacity="0" result="BackgroundImageFix"/>
<feColorMatrix in="SourceAlpha" type="matrix" values="0 0 0 0 0 0 0 0 0 0 0 0 0 0 0 0 0 0 127 0"/>
<feOffset dy="4"/>
<feGaussianBlur stdDeviation="6"/>
<feColorMatrix type="matrix" values="0 0 0 0 0.933333 0 0 0 0 0.192157 0 0 0 0 0.137255 0 0 0 1 0"/>
<feBlend mode="normal" in2="BackgroundImageFix" result="effect1_dropShadow"/>
<feColorMatrix in="SourceAlpha" type="matrix" values="0 0 0 0 0 0 0 0 0 0 0 0 0 0 0 0 0 0 127 0"/>
<feOffset dy="6"/>
<feGaussianBlur stdDeviation="4.5"/>
<feColorMatrix type="matrix" values="0 0 0 0 0 0 0 0 0 0 0 0 0 0 0 0 0 0 0.56 0"/>
<feBlend mode="normal" in2="effect1_dropShadow" result="effect2_dropShadow"/>
<feBlend mode="normal" in="SourceGraphic" in2="effect2_dropShadow" result="shape"/>
</filter>
<clipPath id="clip0">
<rect width="28" height="28" fill="white" transform="translate(12 8)"/>
</clipPath>
</defs>
</svg>
