<svg width="24" height="24" viewBox="0 0 24 24" fill="none" xmlns="http://www.w3.org/2000/svg">
<path d="M22 17.1875C22 17.4881 21.83 17.7627 21.56 17.9041C21.4366 17.9691 21.3016 18 21.1666 18C21.005 18 20.8433 17.9545 20.705 17.8635L17 15.4553V17.1875C17 17.636 16.6266 18 16.1666 18H4.5C2.07 18 2 12.1648 2 11.5002C2 10.8357 2.07 5.0005 4.5 5.0005H16.1666C16.6266 5.0005 17 5.36451 17 5.81299V7.54516L20.705 5.13699C20.96 4.96965 21.2916 4.95502 21.56 5.09639C21.8316 5.23776 22 5.51235 22 5.81299V17.1875Z" fill="white"/>
</svg>
