<svg width="200" height="152" viewBox="0 0 200 152" fill="none" xmlns="http://www.w3.org/2000/svg">
<g clip-path="url(#clip0)">
<path d="M142.475 91.4133L118.564 83.4899V82.1571C126.376 76.427 131.461 67.1872 131.461 56.7786V22.0364C131.461 19.8793 129.711 18.1301 127.554 18.1301H91.1789C78.6953 18.1301 68.5391 28.286 68.5391 40.7696V56.7786C68.5391 67.1872 73.6234 76.427 81.4355 82.1567V83.4899L57.525 91.4133C48.0836 94.5418 41.7402 103.326 41.7402 113.273V148.094C41.7402 150.251 43.4895 152 45.6465 152H82.8129C84.9699 152 86.7191 150.251 86.7191 148.094C86.7191 145.937 84.9699 144.188 82.8129 144.188H67.9691V119.969C67.9691 117.812 66.2199 116.063 64.0629 116.063C61.9059 116.063 60.1566 117.812 60.1566 119.969V144.188H49.5527V113.273C49.5527 106.701 53.7437 100.896 59.9824 98.8289L81.7191 91.6258V92.0524C81.7191 102.132 89.9199 110.333 100 110.333C110.081 110.333 118.282 102.132 118.282 92.0524V91.6266L140.018 98.8293C146.256 100.897 150.447 106.701 150.447 113.273V144.188H139.844V119.969C139.844 117.812 138.095 116.063 135.938 116.063C133.781 116.063 132.032 117.812 132.032 119.969V144.188H114.375C112.218 144.188 110.469 145.937 110.469 148.094C110.469 150.251 112.218 152 114.375 152H154.354C156.511 152 158.26 150.251 158.26 148.094V113.273C158.259 103.327 151.916 94.5418 142.475 91.4133ZM76.3516 40.7696C76.3512 32.5938 83.0031 25.9426 91.1785 25.9426H123.648V45.6563C120.865 46.8204 117.854 47.4387 114.817 47.4387C107.687 47.4387 101.092 44.193 96.723 38.5348C95.9832 37.577 94.8418 37.0157 93.6312 37.0157C92.4211 37.0157 91.2793 37.577 90.5395 38.5344C86.9812 43.1422 81.9477 46.1489 76.3516 47.1071V40.7696ZM110.469 92.0528C110.469 97.8251 105.773 102.521 100 102.521C94.2277 102.521 89.5312 97.8251 89.5312 92.0524V86.4418C92.8082 87.6016 96.3301 88.2395 99.9992 88.2395C103.669 88.2395 107.191 87.6016 110.469 86.4415V92.0528ZM99.9988 80.4266C86.959 80.4266 76.3512 69.8184 76.3512 56.7786V54.9981C82.8738 54.1743 88.8937 51.3047 93.6309 46.7555C99.3012 52.2008 106.806 55.2512 114.816 55.2512C117.813 55.2512 120.793 54.8055 123.647 53.9497V56.7786C123.647 69.8184 113.039 80.4266 99.9988 80.4266Z" fill="#2A2D31"/>
<path d="M100.222 145.332C99.4961 144.605 98.4883 144.188 97.4609 144.188C96.4336 144.188 95.4258 144.605 94.6992 145.332C93.9727 146.059 93.5547 147.066 93.5547 148.094C93.5547 149.121 93.9723 150.129 94.6992 150.855C95.4258 151.582 96.4336 152 97.4609 152C98.4883 152 99.4961 151.582 100.222 150.855C100.949 150.129 101.367 149.121 101.367 148.094C101.367 147.066 100.949 146.059 100.222 145.332Z" fill="#2A2D31"/>
</g>
<defs>
<clipPath id="clip0">
<rect width="200" height="152" fill="white"/>
</clipPath>
</defs>
</svg>
