<svg width="20" height="20" viewBox="0 0 20 20" fill="none" xmlns="http://www.w3.org/2000/svg">
<path d="M3.82812 3.125H16.1719C16.3876 3.125 16.5625 2.95012 16.5625 2.73438V1.71875C16.5625 0.769492 15.793 0 14.8438 0H5.15625C4.20699 0 3.4375 0.769492 3.4375 1.71875V2.73438C3.4375 2.95012 3.61238 3.125 3.82812 3.125Z" fill="black"/>
<path d="M2.10938 4.375H17.8906C19.0537 4.375 20 5.32125 20 6.48438V13.8281C20 14.9913 19.0537 15.9375 17.8906 15.9375H16.5625V12.8125C16.5625 11.2617 15.3008 10 13.75 10H6.25C4.69918 10 3.4375 11.2617 3.4375 12.8125V15.9375H2.10938C0.946251 15.9375 0 14.9913 0 13.8281V6.48438C0 5.32125 0.946251 4.375 2.10938 4.375ZM16.2492 9.0625C16.767 9.0625 17.1869 8.64277 17.1869 8.125C17.1869 7.60723 16.7674 7.1875 16.2496 7.1875H16.2492C15.7314 7.1875 15.3117 7.60723 15.3117 8.125C15.3117 8.64277 15.7314 9.0625 16.2492 9.0625Z" fill="black"/>
<path d="M6.25 11.875H13.75C14.2678 11.875 14.6875 12.2947 14.6875 12.8125V15.9375V17.1875C14.6875 17.7053 14.2678 18.125 13.75 18.125H6.25C5.73223 18.125 5.3125 17.7053 5.3125 17.1875V15.9375V12.8125C5.3125 12.2947 5.73223 11.875 6.25 11.875Z" fill="black"/>
</svg>
