<svg width="24" height="24" viewBox="0 0 24 24" fill="none" xmlns="http://www.w3.org/2000/svg">
<g clip-path="url(#clip0)">
<path d="M23.9757 7.05607C23.9195 5.78085 23.7133 4.90416 23.4179 4.14449C23.1131 3.33812 22.6443 2.61617 22.03 2.01602C21.4299 1.40652 20.7032 0.932921 19.9062 0.632936C19.1421 0.337529 18.27 0.131312 16.9948 0.0750879C15.71 0.0141019 15.3022 0 12.0437 0C8.78528 0 8.37743 0.0141019 7.09745 0.0703262C5.82224 0.126551 4.94555 0.332951 4.18606 0.628174C3.37951 0.932922 2.65757 1.40176 2.05741 2.01602C1.44792 2.61617 0.9745 3.34288 0.674332 4.13991C0.378926 4.90416 0.172709 5.77609 0.116485 7.0513C0.0554989 8.33604 0.0413971 8.7439 0.0413971 12.0023C0.0413971 15.2608 0.0554989 15.6686 0.111723 16.9486C0.167948 18.2238 0.374347 19.1005 0.669754 19.8602C0.9745 20.6666 1.44792 21.3885 2.05741 21.9887C2.65757 22.5982 3.38427 23.0718 4.1813 23.3718C4.94555 23.6672 5.81748 23.8734 7.09288 23.9296C8.37266 23.986 8.7807 23.9999 12.0391 23.9999C15.2976 23.9999 15.7054 23.986 16.9854 23.9296C18.2606 23.8734 19.1373 23.6672 19.8968 23.3718C21.5097 22.7482 22.7849 21.4729 23.4085 19.8602C23.7038 19.096 23.9102 18.2238 23.9664 16.9486C24.0226 15.6686 24.0367 15.2608 24.0367 12.0023C24.0367 8.7439 24.032 8.33604 23.9757 7.05607ZM21.8145 16.8549C21.7628 18.027 21.566 18.6599 21.4019 19.0819C20.9986 20.1274 20.1688 20.9572 19.1232 21.3605C18.7013 21.5246 18.0638 21.7215 16.8962 21.7729C15.6304 21.8293 15.2507 21.8433 12.0485 21.8433C8.84627 21.8433 8.46185 21.8293 7.20056 21.7729C6.02846 21.7215 5.39552 21.5246 4.97357 21.3605C4.45326 21.1682 3.97966 20.8634 3.59525 20.4649C3.19673 20.0758 2.89199 19.6069 2.69969 19.0866C2.53559 18.6647 2.33872 18.027 2.28726 16.8596C2.23085 15.5937 2.21693 15.2139 2.21693 12.0117C2.21693 8.80946 2.23085 8.42505 2.28726 7.16394C2.33872 5.99183 2.53559 5.3589 2.69969 4.93694C2.89199 4.41645 3.19673 3.94303 3.60001 3.55843C3.989 3.15992 4.45784 2.85517 4.97833 2.66306C5.40029 2.49896 6.03798 2.30209 7.20532 2.25044C8.47119 2.19422 8.85103 2.18011 12.0531 2.18011C15.26 2.18011 15.6397 2.19422 16.901 2.25044C18.0731 2.30209 18.706 2.49896 19.128 2.66306C19.6483 2.85517 20.1219 3.15992 20.5063 3.55843C20.9048 3.94761 21.2096 4.41645 21.4019 4.93694C21.566 5.3589 21.7628 5.99641 21.8145 7.16394C21.8707 8.42981 21.8848 8.80946 21.8848 12.0117C21.8848 15.2139 21.8707 15.589 21.8145 16.8549Z" fill="white"/>
<path d="M12.0436 5.83716C8.63993 5.83716 5.87834 8.59856 5.87834 12.0024C5.87834 15.4063 8.63993 18.1677 12.0436 18.1677C15.4475 18.1677 18.2089 15.4063 18.2089 12.0024C18.2089 8.59856 15.4475 5.83716 12.0436 5.83716ZM12.0436 16.0017C9.83547 16.0017 8.04435 14.2107 8.04435 12.0024C8.04435 9.79411 9.83547 8.00317 12.0436 8.00317C14.2519 8.00317 16.0429 9.79411 16.0429 12.0024C16.0429 14.2107 14.2519 16.0017 12.0436 16.0017Z" fill="white"/>
<path d="M19.8925 5.59336C19.8925 6.3882 19.2481 7.03267 18.453 7.03267C17.6582 7.03267 17.0137 6.3882 17.0137 5.59336C17.0137 4.79835 17.6582 4.15405 18.453 4.15405C19.2481 4.15405 19.8925 4.79835 19.8925 5.59336Z" fill="white"/>
</g>
<defs>
<clipPath id="clip0">
<rect width="24" height="24" fill="white"/>
</clipPath>
</defs>
</svg>
