<svg width="24" height="24" viewBox="0 0 24 24" fill="none" xmlns="http://www.w3.org/2000/svg">
<path fill-rule="evenodd" clip-rule="evenodd" d="M14.8094 3.23549C14.3289 3.03476 13.8133 2.9314 13.2926 2.9314C12.7719 2.9314 12.2563 3.03476 11.7759 3.23549C11.2954 3.43622 10.8595 3.73033 10.4935 4.10077C10.1276 4.47121 9.83878 4.9106 9.64389 5.39348C9.44956 5.87497 9.35246 6.39014 9.35816 6.9093L9.36426 15.7492L9.36435 15.7548C9.37525 16.4448 9.65696 17.1027 10.1487 17.5868C10.6404 18.0708 11.3028 18.3421 11.9928 18.3421C12.6828 18.3421 13.3451 18.0708 13.8368 17.5868C14.3286 17.1027 14.6103 16.4448 14.6212 15.7548L14.6213 15.7489V9.00003C14.6213 8.58582 14.2855 8.25003 13.8713 8.25003C13.4571 8.25003 13.1213 8.58582 13.1213 9.00003V15.7363C13.1153 16.0307 12.9945 16.3111 12.7846 16.5178C12.5734 16.7256 12.289 16.8421 11.9928 16.8421C11.6965 16.8421 11.4121 16.7256 11.201 16.5178C10.991 16.3111 10.8702 16.0305 10.8643 15.7361L10.8582 6.89991L10.8581 6.89562C10.8542 6.57343 10.9143 6.25367 11.0349 5.95487C11.1555 5.65608 11.3342 5.38419 11.5606 5.15497C11.7871 4.92576 12.0568 4.74377 12.3541 4.61956C12.6514 4.49535 12.9704 4.4314 13.2926 4.4314C13.6148 4.4314 13.9338 4.49535 14.2311 4.61956C14.5285 4.74377 14.7982 4.92576 15.0246 5.15497C15.2511 5.38419 15.4298 5.65608 15.5504 5.95487C15.671 6.25367 15.731 6.57343 15.7271 6.89562L15.7271 6.90017V15.808L15.7271 15.8134C15.7343 16.3073 15.6432 16.7977 15.4591 17.2561C15.275 17.7145 15.0017 18.1318 14.6549 18.4836C14.3082 18.8354 13.8949 19.1148 13.4392 19.3055C12.9835 19.4961 12.4945 19.5943 12.0005 19.5943C11.5065 19.5943 11.0175 19.4961 10.5618 19.3055C10.1061 19.1148 9.69286 18.8354 9.3461 18.4836C8.99934 18.1318 8.72597 17.7145 8.5419 17.2561C8.35783 16.7977 8.26672 16.3073 8.27386 15.8134L8.27394 15.808V7.48785C8.27394 7.07363 7.93816 6.73785 7.52394 6.73785C7.10973 6.73785 6.77394 7.07363 6.77394 7.48785V15.7973C6.76469 16.4881 6.89248 17.1739 7.14993 17.8151C7.40809 18.458 7.79147 19.0431 8.27779 19.5365C8.76411 20.03 9.34366 20.4218 9.98275 20.6892C10.6218 20.9566 11.3077 21.0943 12.0005 21.0943C12.6933 21.0943 13.3792 20.9566 14.0183 20.6892C14.6574 20.4218 15.2369 20.03 15.7232 19.5365C16.2095 19.0431 16.5929 18.458 16.8511 17.8151C17.1085 17.1739 17.2363 16.4881 17.2271 15.7973V6.90903C17.2327 6.38996 17.1356 5.87489 16.9413 5.39348C16.7465 4.9106 16.4577 4.47121 16.0917 4.10077C15.7257 3.73033 15.2899 3.43622 14.8094 3.23549Z" fill="black"/>
</svg>
