<svg width="36" height="36" viewBox="0 0 36 36" fill="none" xmlns="http://www.w3.org/2000/svg">
<path d="M30.0938 15.75H20.25C19.3549 15.75 18.4964 15.3944 17.8635 14.7615C17.2306 14.1286 16.875 13.2701 16.875 12.375V2.53125C16.875 2.45666 16.8454 2.38512 16.7926 2.33238C16.7399 2.27963 16.6683 2.25 16.5938 2.25H10.125C8.93153 2.25 7.78693 2.72411 6.94302 3.56802C6.09911 4.41193 5.625 5.55653 5.625 6.75V29.25C5.625 30.4435 6.09911 31.5881 6.94302 32.432C7.78693 33.2759 8.93153 33.75 10.125 33.75H25.875C27.0685 33.75 28.2131 33.2759 29.057 32.432C29.9009 31.5881 30.375 30.4435 30.375 29.25V16.0312C30.375 15.9567 30.3454 15.8851 30.2926 15.8324C30.2399 15.7796 30.1683 15.75 30.0938 15.75Z" fill="white"/>
<path d="M29.4764 13.2603L19.3648 3.14862C19.3451 3.12907 19.3201 3.11577 19.2929 3.1104C19.2657 3.10502 19.2375 3.1078 19.2119 3.1184C19.1863 3.12899 19.1643 3.14693 19.1489 3.16994C19.1334 3.19296 19.1251 3.22003 19.125 3.24776V12.375C19.125 12.6734 19.2435 12.9595 19.4545 13.1705C19.6655 13.3815 19.9516 13.5 20.25 13.5H29.3773C29.405 13.4999 29.4321 13.4916 29.4551 13.4761C29.4781 13.4607 29.496 13.4388 29.5066 13.4131C29.5172 13.3875 29.52 13.3593 29.5146 13.3321C29.5092 13.3049 29.4959 13.2799 29.4764 13.2603Z" fill="white"/>
</svg>
