<svg width="24" height="24" viewBox="0 0 24 24" fill="none" xmlns="http://www.w3.org/2000/svg">
<g clip-path="url(#clip0)">
<path d="M14.8262 1.17243C13.2675 -0.386254 10.7325 -0.386254 9.17377 1.17243L0.703125 9.59625L7.07812 15.9244L9.51436 13.4881C10.8849 12.1176 13.1151 12.1176 14.4857 13.4881L16.9219 15.9244L23.2969 9.59625L14.8262 1.17243Z" fill="#C5351C"/>
<path d="M23.9742 10.9075L17.9163 16.9185L23.7887 22.791C23.9203 22.516 24.0001 22.212 24.0001 21.8873V11.1727C24.0001 11.0826 23.9853 10.9955 23.9742 10.9075Z" fill="#C5351C"/>
<path d="M0.0260156 10.9075C0.0149531 10.9955 0 11.0825 0 11.1726V21.8872C0 22.2119 0.0798281 22.5159 0.211406 22.7909L6.08386 16.9184L0.0260156 10.9075Z" fill="#C5351C"/>
<path d="M13.4913 14.4824C12.6948 13.6859 11.305 13.6859 10.5085 14.4824L1.20557 23.7853C1.48058 23.9169 1.78457 23.9968 2.10927 23.9968H21.8905C22.2152 23.9968 22.5192 23.9169 22.7942 23.7853L13.4913 14.4824Z" fill="#C5351C"/>
</g>
<defs>
<clipPath id="clip0">
<rect width="24" height="24" fill="white"/>
</clipPath>
</defs>
</svg>
