<svg width="48" height="47" viewBox="0 0 48 47" fill="none" xmlns="http://www.w3.org/2000/svg">
<g clip-path="url(#clip0)">
<path d="M31.9168 22.5808L21.9498 15.4865C21.584 15.2269 21.0984 15.1878 20.6975 15.3895C20.2934 15.5897 20.041 15.9964 20.041 16.4358V30.6198C20.041 31.064 20.2934 31.4691 20.6975 31.6693C20.8684 31.7537 21.0553 31.796 21.2438 31.796C21.4898 31.796 21.7389 31.7193 21.9498 31.5676L31.9168 24.4795C32.2315 24.2528 32.4152 23.9024 32.4152 23.5302C32.4168 23.1517 32.2283 22.8029 31.9168 22.5808Z" fill="white"/>
<path d="M24.0008 0.00268555C10.7433 0.00268555 0 10.5222 0 23.5035C0 36.48 10.7433 46.9964 24.0008 46.9964C37.2551 46.9964 48 36.4785 48 23.5035C48.0016 10.5222 37.2551 0.00268555 24.0008 0.00268555ZM24.0008 43.0755C12.9604 43.0755 4.00918 34.3155 4.00918 23.5035C4.00918 12.6962 12.9604 3.92522 24.0008 3.92522C35.0396 3.92522 43.9892 12.6946 43.9892 23.5035C43.9908 34.3155 35.0396 43.0755 24.0008 43.0755Z" fill="white"/>
</g>
<defs>
<clipPath id="clip0">
<rect width="48" height="47" fill="white"/>
</clipPath>
</defs>
</svg>
