<svg width="20" height="20" viewBox="0 0 20 20" fill="none" xmlns="http://www.w3.org/2000/svg">
<g clip-path="url(#clip0)">
<path d="M18.18 19.7381H16.18C16.18 16.3641 13.35 13.6201 9.86902 13.6201C6.38802 13.6201 3.55902 16.3651 3.55902 19.7381H1.55902C1.55902 15.2601 5.28802 11.6201 9.87002 11.6201C14.451 11.6201 18.18 15.2601 18.18 19.7381Z" fill="white"/>
<path d="M9.87005 10.97C6.84705 10.97 4.38605 8.508 4.38605 5.485C4.38505 2.461 6.84605 0 9.87005 0C12.895 0 15.356 2.46 15.356 5.485C15.356 8.51 12.895 10.97 9.87005 10.97ZM9.87005 2C7.94805 2 6.38505 3.563 6.38505 5.485C6.38505 7.407 7.94805 8.97 9.87005 8.97C11.793 8.97 13.356 7.407 13.356 5.485C13.356 3.563 11.791 2 9.87005 2Z" fill="white"/>
</g>
<defs>
<clipPath id="clip0">
<rect width="19.738" height="19.738" fill="white"/>
</clipPath>
</defs>
</svg>
