<svg width="112" height="23" viewBox="0 0 112 23" fill="none" xmlns="http://www.w3.org/2000/svg">
<path d="M35.7636 10.5745H41.6781L35.4912 19.6909V22.6426C46.4378 22.6426 46.4378 22.6426 46.4378 22.6426V19.2554H40.2286L46.4378 10.1411V7.18793H35.7636V10.5745Z" fill="white"/>
<path d="M56.7499 17.1289C56.7499 18.5184 55.9113 19.3876 54.5732 19.3876C53.2375 19.3876 52.4425 18.5403 52.4425 17.1289V7.18793H48.4775V17.2171C48.4775 20.4499 51.0376 22.7735 54.573 22.7735C58.1302 22.7735 60.7146 20.428 60.7146 17.2171C60.7146 7.18793 60.7146 7.18793 60.7146 7.18793H56.7499V17.1289Z" fill="white"/>
<path d="M73.7692 14.72C75.0152 13.8509 75.5361 12.8963 75.5361 11.5289C75.5361 8.88208 73.544 7.18771 70.3941 7.18771H63.707V22.6422H70.7331C73.792 22.6422 75.7648 20.862 75.7648 18.1058C75.7648 16.5434 75.1969 15.5888 73.7692 14.72ZM67.6742 10.5966H70.1439C71.0492 10.5966 71.571 11.0749 71.571 11.8561C71.571 12.6373 71.049 13.1138 70.1439 13.1138C67.6742 13.1138 67.6742 13.1138 67.6742 13.1138V10.5966ZM70.348 19.2356C67.6742 19.2356 67.6742 19.2356 67.6742 19.2356V16.5213H70.348C71.2526 16.5213 71.7981 17.0216 71.7981 17.8666C71.7981 18.7143 71.2526 19.2356 70.348 19.2356Z" fill="white"/>
<path d="M89.2255 15.1545C90.0204 14.3072 90.4055 13.3086 90.4055 12.1363C90.4055 9.27276 88.0937 7.18811 84.8975 7.18811H78.5059V22.6426H82.473V16.8901H83.8105L86.666 22.6426C91.2665 22.6426 91.2665 22.6426 91.2665 22.6426L87.7752 16.197C88.5236 15.7842 88.8404 15.5673 89.2255 15.1545ZM84.7165 13.7214C82.473 13.7214 82.473 13.7214 82.473 13.7214V10.5966H84.7165C85.7147 10.5966 86.4384 11.2699 86.4384 12.1588C86.4384 13.0494 85.7147 13.7214 84.7165 13.7214Z" fill="white"/>
<path d="M93.2832 22.6426C97.2497 22.6426 97.2497 22.6426 97.2497 22.6426V7.18793H93.2832V22.6426Z" fill="white"/>
<path d="M99.5615 7.18793V10.5745H103.526V22.6426H107.493V10.5745C111.459 10.5745 111.459 10.5745 111.459 10.5745V7.18793H99.5615Z" fill="white"/>
<path d="M33.1157 7.41801C31.2822 7.71036 30.874 8.48265 30.6362 9.27427C30.5495 9.56491 30.3689 9.70025 30.1453 9.7642C27.2569 6.78552 24.0842 6.45982 24.0842 6.45982C22.2469 1.59833 16.1597 0.642046 12.9661 1.38247C12.167 0.419176 10.7278 -0.101774 8.52313 0.454019C10.2703 0.762298 12.9541 2.5784 10.3721 4.90249C10.2348 5.81033 10.7466 6.4152 11.6839 6.6812C11.638 6.72433 11.5938 6.76959 11.5455 6.80974C10.1718 6.67483 9.36301 6.01642 9.53138 4.90228C10.3706 4.14678 10.6512 3.44566 10.5909 2.83186C9.62722 2.95275 8.31903 3.30225 6.6202 4.08644C4.32572 5.14618 3.2467 6.28497 2.70142 7.33707C1.9099 6.43815 2.64285 4.8054 3.18946 3.82341C-0.355291 4.95306 -0.305378 9.66732 3.11293 9.99918C3.0446 10.8095 3.19634 11.6468 3.60896 12.425C4.48212 14.0727 6.48865 15.0706 8.42086 15.0355C8.50826 15.33 8.58812 15.6234 8.66111 15.9119C9.91827 16.1524 11.1546 16.4378 11.858 17.1159C12.3183 16.8049 12.8541 16.0883 13.0622 14.6746L13.5881 15.6253C14.1474 16.3371 14.7934 17.137 14.2359 19.1829C13.7984 20.7881 13.5881 21.8995 13.975 22.7737H16.2713C15.7063 21.0728 17.2605 18.7463 18.2308 18.2069C17.4883 17.4049 17.5841 17.2281 16.7473 16.5119C19.2586 16.8703 20.742 19.2741 21.0219 19.986C21.268 20.623 20.3995 21.6182 20.419 22.7737H23.2084C22.9309 21.7537 23.1596 21.049 23.9003 20.3445C24.7373 19.5431 25.6695 18.4733 25.4793 17.3142L23.812 15.9782C26.0375 16.1605 27.5278 17.7629 28.8275 18.741C30.1277 19.7188 29.5703 20.5191 29.4818 21.0547C29.411 21.4505 29.3921 22.1242 29.6834 22.7739H32.2459C31.5613 21.8502 31.8969 21.5474 32.3608 20.5191C32.9183 19.2745 34.8651 16.5121 31.7079 11.7082C31.5551 11.4753 31.3964 11.2612 31.2378 11.0483C31.5528 10.8093 31.7372 10.5414 31.6941 10.255C31.609 9.69069 31.4142 8.72357 33.2437 8.81876L34.6892 7.312C34.6887 7.31178 34.9456 7.12801 33.1157 7.41801ZM9.32574 10.9285L10.4056 8.71784C11.7644 9.60507 10.6097 11.4063 9.32574 10.9285Z" fill="white"/>
</svg>
