<svg width="17" height="16" viewBox="0 0 17 16" fill="none" xmlns="http://www.w3.org/2000/svg">
<g clip-path="url(#clip0)">
<path d="M13.6579 8.4541L15.5367 8.4541C15.796 8.4541 16.0063 8.24382 16.0063 7.98442L16.0063 0.469678C16.0063 0.210304 15.7961 -7.64778e-06 15.5367 -7.67046e-06L13.658 -7.8347e-06C13.3986 -7.85737e-06 13.1883 0.210273 13.1883 0.469678L13.1883 7.98445C13.1883 8.24382 13.3985 8.4541 13.6579 8.4541Z" fill="#fff"/>
<path d="M1.92557 7.20914C2.00842 7.93773 2.68901 8.45414 3.42229 8.45414L7.084 8.45414C6.77281 9.01135 6.60578 10.5874 6.61319 11.2312C6.62547 12.2969 7.508 13.1509 8.57372 13.1509L8.96128 13.1509C9.22087 13.1509 9.43097 12.9408 9.43097 12.6812C9.43097 11.5951 9.85387 9.63473 10.6515 8.83711C11.1883 8.30026 11.6472 8.10573 12.249 7.80498L12.249 0.757559C11.3277 0.450465 10.1579 -2.09016e-06 8.37484 -2.24604e-06L5.30247 -2.51464e-06C4.29013 -2.60314e-06 3.5017 0.937589 3.89398 1.92821C3.29632 2.09102 2.85557 2.63915 2.85557 3.28771C2.85557 3.47074 2.89088 3.64593 2.95463 3.80693C1.94748 4.08133 1.57676 5.32492 2.27579 6.10577C2.01898 6.39267 1.87736 6.78511 1.92557 7.20914Z" fill="#fff"/>
</g>
<defs>
<clipPath id="clip0">
<rect width="16" height="16" fill="white" transform="translate(16.9614 16) rotate(-180)"/>
</clipPath>
</defs>
</svg>
