<svg width="9" height="10" viewBox="0 0 9 10" fill="none" xmlns="http://www.w3.org/2000/svg">
<path d="M8.27677 4.59321C8.21464 4.04676 7.70419 3.65946 7.15423 3.65946H4.40795C4.64134 3.24154 4.76661 2.05952 4.76105 1.57666C4.75184 0.777401 4.08995 0.136902 3.29066 0.136902H2.99999C2.80529 0.136902 2.64772 0.294449 2.64772 0.489167C2.64772 1.30374 2.33054 2.77401 1.73235 3.37223C1.32972 3.77486 0.985515 3.92076 0.53418 4.14632V9.43189C1.22519 9.66221 2.10254 10.0001 3.43982 10.0001H5.74409C6.50335 10.0001 7.09468 9.29687 6.80047 8.5539C7.24871 8.43179 7.57927 8.0207 7.57927 7.53428C7.57927 7.39701 7.55278 7.26561 7.50497 7.14486C8.26034 6.93906 8.53838 6.00637 8.0141 5.42074C8.20671 5.20556 8.31293 4.91123 8.27677 4.59321Z" fill="#fff"/>
</svg>
