<svg width="17" height="16" viewBox="0 0 17 16" fill="none" xmlns="http://www.w3.org/2000/svg">
<g clip-path="url(#clip0)">
<path d="M4.26491 7.5459H2.38619C2.12682 7.5459 1.9165 7.75618 1.9165 8.01558V15.5303C1.9165 15.7897 2.12678 16 2.38619 16H4.26487C4.52425 16 4.73456 15.7897 4.73456 15.5303V8.01555C4.73456 7.75618 4.52431 7.5459 4.26491 7.5459Z" fill="#fff"/>
<path d="M15.9973 8.79086C15.9144 8.06227 15.2338 7.54586 14.5006 7.54586H10.8389C11.15 6.98864 11.3171 5.41262 11.3097 4.76881C11.2974 3.70312 10.4149 2.84912 9.34913 2.84912H8.96157C8.70198 2.84912 8.49189 3.05918 8.49189 3.31881C8.49189 4.4049 8.06898 6.36527 7.27139 7.16289C6.73454 7.69974 6.27561 7.89427 5.67383 8.19502V15.2424C6.59517 15.5495 7.76498 16 9.54801 16H12.6204C13.6327 16 14.4212 15.0624 14.0289 14.0718C14.6265 13.909 15.0673 13.3609 15.0673 12.7123C15.0673 12.5293 15.032 12.3541 14.9682 12.1931C15.9754 11.9187 16.3461 10.6751 15.6471 9.89423C15.9039 9.60733 16.0455 9.21489 15.9973 8.79086Z" fill="#fff"/>
</g>
<defs>
<clipPath id="clip0">
<rect width="16" height="16" fill="white" transform="translate(0.961426)"/>
</clipPath>
</defs>
</svg>
